<svg width="20" height="28" viewBox="0 0 20 28" fill="none" xmlns="http://www.w3.org/2000/svg">
<path d="M15.8331 22.7463H4.16643C3.70611 22.7463 3.3331 23.119 3.3331 23.5788C3.3331 24.0385 3.70611 24.4112 4.16643 24.4112H15.8331C16.2931 24.4112 16.6664 24.0385 16.6664 23.5788C16.6664 23.119 16.2931 22.7463 15.8331 22.7463Z" fill="black"/>
<mask id="mask0_1_507" style="mask-type:luminance" maskUnits="userSpaceOnUse" x="5" y="25" width="10" height="3">
<path d="M5.11185 25.488H14.8999V27.7565H5.11185V25.488Z" fill="white"/>
</mask>
<g mask="url(#mask0_1_507)">
<path d="M6.1438 27.3719C6.21936 27.5983 6.43161 27.7512 6.67095 27.7512H13.3376C13.5767 27.7512 13.7889 27.5983 13.8645 27.3719L14.8492 25.5315H5.15933L6.1438 27.3719Z" fill="black"/>
</g>
<path d="M15.8331 19.97H4.16643C3.70611 19.97 3.3331 20.3424 3.3331 20.8021C3.3331 21.2618 3.70611 21.6345 4.16643 21.6345H15.8331C16.2931 21.6345 16.6664 21.2618 16.6664 20.8021C16.6664 20.3424 16.2931 19.97 15.8331 19.97Z" fill="black"/>
<path d="M10.5536 14.4321C10.5536 14.4685 10.55 14.5046 10.5428 14.5404C10.5359 14.576 10.5253 14.6109 10.5112 14.6443C10.4973 14.678 10.4802 14.7099 10.46 14.7403C10.4398 14.7707 10.4166 14.7987 10.3908 14.8243C10.3652 14.8502 10.3372 14.8731 10.3068 14.8936C10.2763 14.9137 10.2444 14.9309 10.2107 14.9448C10.177 14.9586 10.1421 14.9691 10.1066 14.9764C10.0707 14.9833 10.0346 14.9869 9.99817 14.9869C9.96144 14.9869 9.92531 14.9833 9.88979 14.9764C9.85396 14.9691 9.81904 14.9586 9.78532 14.9448C9.7516 14.9309 9.71969 14.9137 9.68928 14.8936C9.65918 14.8731 9.63088 14.8502 9.60529 14.8243C9.5794 14.7987 9.55651 14.7707 9.53604 14.7403C9.51587 14.7099 9.49871 14.678 9.48486 14.6443C9.47071 14.6109 9.46018 14.576 9.45325 14.5404C9.44603 14.5046 9.44241 14.4685 9.44241 14.4321C9.44241 14.3956 9.44603 14.3595 9.45325 14.3237C9.46018 14.2881 9.47071 14.2532 9.48486 14.2198C9.49871 14.1861 9.51587 14.1542 9.53604 14.1238C9.55651 14.0934 9.5794 14.0654 9.60529 14.0398C9.63088 14.0139 9.65918 13.991 9.68928 13.9705C9.71969 13.9504 9.7516 13.9332 9.78532 13.9193C9.81904 13.9055 9.85396 13.895 9.88979 13.8877C9.92531 13.8808 9.96144 13.8772 9.99817 13.8772C10.0346 13.8772 10.0707 13.8808 10.1066 13.8877C10.1421 13.895 10.177 13.9055 10.2107 13.9193C10.2444 13.9332 10.2763 13.9504 10.3068 13.9705C10.3372 13.991 10.3652 14.0139 10.3908 14.0398C10.4166 14.0654 10.4398 14.0934 10.46 14.1238C10.4802 14.1542 10.4973 14.1861 10.5112 14.2198C10.5253 14.2532 10.5359 14.2881 10.5428 14.3237C10.55 14.3595 10.5536 14.3956 10.5536 14.4321Z" fill="black"/>
<mask id="mask1_1_507" style="mask-type:luminance" maskUnits="userSpaceOnUse" x="0" y="0" width="20" height="19">
<path d="M0 0H20V18.9261H0V0Z" fill="white"/>
</mask>
<g mask="url(#mask1_1_507)">
<path d="M10 0C4.48579 0 0 4.48067 0 9.98826C0 12.9874 1.3355 15.7993 3.6651 17.7038C4.01614 17.9904 4.2603 18.4053 4.37259 18.8665H15.6274C15.7397 18.4053 15.9839 17.9901 16.3349 17.7035C18.6642 15.7993 20 12.9874 20 9.98826C20 4.48067 15.5139 0 10 0ZM16.6667 12.2077C16.6667 13.1256 15.9188 13.8725 15 13.8725C14.524 13.8725 14.0971 13.6699 13.7931 13.3496L11.6537 14.3018C11.657 14.344 11.6667 14.3843 11.6667 14.4274C11.6667 15.3453 10.9188 16.0919 10 16.0919C9.08086 16.0919 8.33333 15.3453 8.33333 14.4274C8.33333 14.3843 8.34267 14.344 8.34598 14.3018L6.20665 13.3496C5.90258 13.6699 5.47567 13.8725 5 13.8725C4.08086 13.8725 3.33333 13.1256 3.33333 12.2077C3.33333 11.4854 3.79907 10.8752 4.44424 10.6452V8.22104C3.79907 7.99133 3.33333 7.38108 3.33333 6.65884C3.33333 5.74091 4.08086 4.99398 5 4.99398C5.47567 4.99398 5.90258 5.19659 6.20665 5.51692L8.34598 4.56467C8.34267 4.52252 8.33333 4.48218 8.33333 4.43913C8.33333 3.52119 9.08086 2.77427 10 2.77427C10.9188 2.77427 11.6667 3.52119 11.6667 4.43913C11.6667 4.48218 11.657 4.52252 11.6537 4.56467L13.7931 5.51692C14.0971 5.19659 14.524 4.99398 15 4.99398C15.9188 4.99398 16.6667 5.74091 16.6667 6.65884C16.6667 7.38108 16.2006 7.99133 15.5555 8.22134V10.6452C16.2006 10.8752 16.6667 11.4854 16.6667 12.2077Z" fill="black"/>
</g>
<path d="M5.55399 12.2045C5.55399 12.2409 5.55038 12.2771 5.54315 12.3129C5.53623 12.3487 5.52569 12.3833 5.51154 12.4171C5.49769 12.4505 5.48053 12.4827 5.46036 12.5128C5.44019 12.5432 5.41701 12.5712 5.39112 12.5971C5.36553 12.6227 5.33753 12.6459 5.30712 12.666C5.27671 12.6862 5.2448 12.7034 5.21108 12.7172C5.17737 12.7311 5.14244 12.7416 5.10692 12.7488C5.07109 12.7561 5.03496 12.7594 4.99854 12.7594C4.96181 12.7594 4.92568 12.7561 4.89015 12.7488C4.85433 12.7416 4.81941 12.7311 4.78569 12.7172C4.75197 12.7034 4.72006 12.6862 4.68965 12.666C4.65954 12.6459 4.63124 12.6227 4.60565 12.5971C4.57976 12.5712 4.55688 12.5432 4.53641 12.5128C4.51624 12.4827 4.49908 12.4505 4.48523 12.4171C4.47108 12.3833 4.46054 12.3487 4.45362 12.3129C4.44639 12.2771 4.44278 12.2409 4.44278 12.2045C4.44278 12.1681 4.44639 12.132 4.45362 12.0964C4.46054 12.0606 4.47108 12.026 4.48523 11.9923C4.49908 11.9585 4.51624 11.9266 4.53641 11.8962C4.55688 11.8661 4.57976 11.8381 4.60565 11.8122C4.63124 11.7863 4.65954 11.7635 4.68965 11.7433C4.72006 11.7231 4.75197 11.706 4.78569 11.6918C4.81941 11.678 4.85433 11.6674 4.89015 11.6605C4.92568 11.6533 4.96181 11.6497 4.99854 11.6497C5.03496 11.6497 5.07109 11.6533 5.10692 11.6605C5.14244 11.6674 5.17737 11.678 5.21108 11.6918C5.2448 11.706 5.27671 11.7231 5.30712 11.7433C5.33753 11.7635 5.36553 11.7863 5.39112 11.8122C5.41701 11.8381 5.44019 11.8661 5.46036 11.8962C5.48053 11.9266 5.49769 11.9585 5.51154 11.9923C5.52569 12.026 5.53623 12.0606 5.54315 12.0964C5.55038 12.132 5.55399 12.1681 5.55399 12.2045Z" fill="black"/>
<path d="M15.5574 6.66062C15.5574 6.69705 15.5538 6.73318 15.5465 6.7687C15.5396 6.80453 15.5291 6.83915 15.5149 6.87287C15.5011 6.90659 15.4839 6.9385 15.4637 6.96891C15.4436 6.99901 15.4204 7.02701 15.3945 7.0529C15.3689 7.07879 15.3409 7.10168 15.3105 7.12185C15.2801 7.14202 15.2482 7.15918 15.2145 7.17333C15.1808 7.18718 15.1458 7.19771 15.1103 7.20464C15.0745 7.21186 15.0384 7.21548 15.0019 7.21548C14.9652 7.21548 14.9291 7.21186 14.8935 7.20464C14.8577 7.19771 14.8228 7.18718 14.7891 7.17333C14.7554 7.15918 14.7234 7.14202 14.693 7.12185C14.6629 7.10168 14.6346 7.07879 14.609 7.0529C14.5831 7.02701 14.5603 6.99901 14.5398 6.96891C14.5196 6.9385 14.5025 6.90659 14.4886 6.87287C14.4745 6.83915 14.4639 6.80453 14.457 6.7687C14.4498 6.73318 14.4462 6.69705 14.4462 6.66062C14.4462 6.62419 14.4498 6.58807 14.457 6.55224C14.4639 6.51642 14.4745 6.48179 14.4886 6.44807C14.5025 6.41436 14.5196 6.38244 14.5398 6.35234C14.5603 6.32193 14.5831 6.29393 14.609 6.26804C14.6346 6.24245 14.6629 6.21927 14.693 6.1991C14.7234 6.17893 14.7554 6.16177 14.7891 6.14792C14.8228 6.13377 14.8577 6.12353 14.8935 6.11631C14.9291 6.10908 14.9652 6.10547 15.0019 6.10547C15.0384 6.10547 15.0745 6.10908 15.1103 6.11631C15.1458 6.12353 15.1808 6.13377 15.2145 6.14792C15.2482 6.16177 15.2801 6.17893 15.3105 6.1991C15.3409 6.21927 15.3689 6.24245 15.3945 6.26804C15.4204 6.29393 15.4436 6.32193 15.4637 6.35234C15.4839 6.38244 15.5011 6.41436 15.5149 6.44807C15.5291 6.48179 15.5396 6.51642 15.5465 6.55224C15.5538 6.58807 15.5574 6.62419 15.5574 6.66062Z" fill="black"/>
<path d="M10.5536 4.44084C10.5536 4.47727 10.55 4.51339 10.5428 4.54922C10.5359 4.58475 10.5253 4.61967 10.5112 4.65309C10.4973 4.68681 10.4802 4.71872 10.46 4.74912C10.4398 4.77953 10.4166 4.80753 10.3908 4.83312C10.3652 4.85901 10.3372 4.88189 10.3068 4.90236C10.2763 4.92253 10.2444 4.9397 10.2107 4.95354C10.177 4.96739 10.1421 4.97793 10.1066 4.98516C10.0707 4.99208 10.0346 4.99569 9.99817 4.99569C9.96144 4.99569 9.92531 4.99208 9.88979 4.98516C9.85396 4.97793 9.81904 4.96739 9.78532 4.95354C9.7516 4.9397 9.71969 4.92253 9.68928 4.90236C9.65918 4.88189 9.63088 4.85901 9.60529 4.83312C9.5794 4.80753 9.55651 4.77953 9.53604 4.74912C9.51587 4.71872 9.49871 4.68681 9.48486 4.65309C9.47071 4.61967 9.46018 4.58475 9.45325 4.54922C9.44603 4.51339 9.44241 4.47727 9.44241 4.44084C9.44241 4.40441 9.44603 4.36828 9.45325 4.33246C9.46018 4.29693 9.47071 4.26201 9.48486 4.22859C9.49871 4.19487 9.51587 4.16296 9.53604 4.13255C9.55651 4.10215 9.5794 4.07415 9.60529 4.04856C9.63088 4.02267 9.65918 3.99979 9.68928 3.97931C9.71969 3.95914 9.7516 3.94198 9.78532 3.92813C9.81904 3.91429 9.85396 3.90375 9.88979 3.89652C9.92531 3.8896 9.96144 3.88599 9.99817 3.88599C10.0346 3.88599 10.0707 3.8896 10.1066 3.89652C10.1421 3.90375 10.177 3.91429 10.2107 3.92813C10.2444 3.94198 10.2763 3.95914 10.3068 3.97931C10.3372 3.99979 10.3652 4.02267 10.3908 4.04856C10.4166 4.07415 10.4398 4.10215 10.46 4.13255C10.4802 4.16296 10.4973 4.19487 10.5112 4.22859C10.5253 4.26201 10.5359 4.29693 10.5428 4.33246C10.55 4.36828 10.5536 4.40441 10.5536 4.44084Z" fill="black"/>
<path d="M5.55399 6.66062C5.55399 6.69705 5.55038 6.73318 5.54315 6.7687C5.53623 6.80453 5.52569 6.83915 5.51154 6.87287C5.49769 6.90659 5.48053 6.9385 5.46036 6.96891C5.44019 6.99901 5.41701 7.02701 5.39112 7.0529C5.36553 7.07879 5.33753 7.10168 5.30712 7.12185C5.27671 7.14202 5.2448 7.15918 5.21108 7.17333C5.17737 7.18718 5.14244 7.19771 5.10692 7.20464C5.07109 7.21186 5.03496 7.21548 4.99854 7.21548C4.96181 7.21548 4.92568 7.21186 4.89015 7.20464C4.85433 7.19771 4.81941 7.18718 4.78569 7.17333C4.75197 7.15918 4.72006 7.14202 4.68965 7.12185C4.65954 7.10168 4.63124 7.07879 4.60565 7.0529C4.57976 7.02701 4.55688 6.99901 4.53641 6.96891C4.51624 6.9385 4.49908 6.90659 4.48523 6.87287C4.47108 6.83915 4.46054 6.80453 4.45362 6.7687C4.44639 6.73318 4.44278 6.69705 4.44278 6.66062C4.44278 6.62419 4.44639 6.58807 4.45362 6.55224C4.46054 6.51642 4.47108 6.48179 4.48523 6.44807C4.49908 6.41436 4.51624 6.38244 4.53641 6.35234C4.55688 6.32193 4.57976 6.29393 4.60565 6.26804C4.63124 6.24245 4.65954 6.21927 4.68965 6.1991C4.72006 6.17893 4.75197 6.16177 4.78569 6.14792C4.81941 6.13377 4.85433 6.12353 4.89015 6.11631C4.92568 6.10908 4.96181 6.10547 4.99854 6.10547C5.03496 6.10547 5.07109 6.10908 5.10692 6.11631C5.14244 6.12353 5.17737 6.13377 5.21108 6.14792C5.2448 6.16177 5.27671 6.17893 5.30712 6.1991C5.33753 6.21927 5.36553 6.24245 5.39112 6.26804C5.41701 6.29393 5.44019 6.32193 5.46036 6.35234C5.48053 6.38244 5.49769 6.41436 5.51154 6.44807C5.52569 6.48179 5.53623 6.51642 5.54315 6.55224C5.55038 6.58807 5.55399 6.62419 5.55399 6.66062Z" fill="black"/>
<path d="M14.4453 8.22129C13.8001 7.99158 13.3344 7.38133 13.3344 6.65909C13.3344 6.61604 13.3437 6.5757 13.347 6.53355L11.2077 5.5813C10.9036 5.90163 10.4767 6.10394 10.0011 6.10394C9.52509 6.10394 9.09819 5.90163 8.79411 5.5813L6.65478 6.53355C6.6581 6.5757 6.66773 6.61604 6.66773 6.65909C6.66773 7.38133 6.20169 7.99158 5.55652 8.22159V10.6454C6.20169 10.8754 6.66773 11.4857 6.66773 12.2079C6.66773 12.251 6.6581 12.2913 6.65478 12.3335L8.79411 13.2857C9.09819 12.9654 9.52509 12.7628 10.0011 12.7628C10.4767 12.7628 10.9036 12.9654 11.2077 13.2857L13.347 12.3335C13.3437 12.2913 13.3344 12.251 13.3344 12.2079C13.3344 11.4857 13.8001 10.8754 14.4453 10.6454V8.22129ZM11.6677 9.98851H10.5565V11.0982C10.5565 11.4047 10.3078 11.6531 10.0011 11.6531C9.69398 11.6531 9.44531 11.4047 9.44531 11.0982V9.98851H8.3344C8.02732 9.98851 7.77864 9.73984 7.77864 9.43336C7.77864 9.12718 8.02732 8.8785 8.3344 8.8785H9.44531V7.7688C9.44531 7.46232 9.69398 7.21395 10.0011 7.21395C10.3078 7.21395 10.5565 7.46232 10.5565 7.7688V8.8785H11.6677C11.9745 8.8785 12.2232 9.12718 12.2232 9.43336C12.2232 9.73984 11.9745 9.98851 11.6677 9.98851Z" fill="black"/>
<path d="M15.5574 12.2045C15.5574 12.2409 15.5538 12.2771 15.5465 12.3129C15.5396 12.3487 15.5291 12.3833 15.5149 12.4171C15.5011 12.4505 15.4839 12.4827 15.4637 12.5128C15.4436 12.5432 15.4204 12.5712 15.3945 12.5971C15.3689 12.6227 15.3409 12.6459 15.3105 12.666C15.2801 12.6862 15.2482 12.7034 15.2145 12.7172C15.1808 12.7311 15.1458 12.7416 15.1103 12.7488C15.0745 12.7561 15.0384 12.7594 15.0019 12.7594C14.9652 12.7594 14.9291 12.7561 14.8935 12.7488C14.8577 12.7416 14.8228 12.7311 14.7891 12.7172C14.7554 12.7034 14.7234 12.6862 14.693 12.666C14.6629 12.6459 14.6346 12.6227 14.609 12.5971C14.5831 12.5712 14.5603 12.5432 14.5398 12.5128C14.5196 12.4827 14.5025 12.4505 14.4886 12.4171C14.4745 12.3833 14.4639 12.3487 14.457 12.3129C14.4498 12.2771 14.4462 12.2409 14.4462 12.2045C14.4462 12.1681 14.4498 12.132 14.457 12.0964C14.4639 12.0606 14.4745 12.026 14.4886 11.9923C14.5025 11.9585 14.5196 11.9266 14.5398 11.8962C14.5603 11.8661 14.5831 11.8381 14.609 11.8122C14.6346 11.7863 14.6629 11.7635 14.693 11.7433C14.7234 11.7231 14.7554 11.706 14.7891 11.6918C14.8228 11.678 14.8577 11.6674 14.8935 11.6605C14.9291 11.6533 14.9652 11.6497 15.0019 11.6497C15.0384 11.6497 15.0745 11.6533 15.1103 11.6605C15.1458 11.6674 15.1808 11.678 15.2145 11.6918C15.2482 11.706 15.2801 11.7231 15.3105 11.7433C15.3409 11.7635 15.3689 11.7863 15.3945 11.8122C15.4204 11.8381 15.4436 11.8661 15.4637 11.8962C15.4839 11.9266 15.5011 11.9585 15.5149 11.9923C15.5291 12.026 15.5396 12.0606 15.5465 12.0964C15.5538 12.132 15.5574 12.1681 15.5574 12.2045Z" fill="black"/>
</svg>
