<svg width="29" height="29" viewBox="0 0 29 29" fill="none" xmlns="http://www.w3.org/2000/svg">
<path d="M14.1166 28.2332C21.9138 28.2332 28.2332 21.9138 28.2332 14.1166C28.2332 6.31938 21.9138 0 14.1166 0C6.31938 0 0 6.31938 0 14.1166C0 21.9138 6.31938 28.2332 14.1166 28.2332ZM14.1166 5.73486C14.85 5.73486 15.44 6.32489 15.44 7.05829V7.94058H16.3223C17.0557 7.94058 17.6457 8.53061 17.6457 9.26401C17.6457 9.99741 17.0557 10.5874 16.3223 10.5874H12.9255C12.363 10.5874 11.9109 11.0396 11.9109 11.6021C11.9109 12.1094 12.2858 12.5395 12.7932 12.6057L15.7929 13.0027C17.6126 13.2453 18.9747 14.7948 18.9747 16.6311C18.9747 18.6107 17.4086 20.2209 15.4455 20.2871V21.1694C15.4455 21.9028 14.8555 22.4928 14.1221 22.4928C13.3887 22.4928 12.7987 21.9028 12.7987 21.1694V20.2871H11.0341C10.3007 20.2871 9.71067 19.6971 9.71067 18.9636C9.71067 18.2302 10.3007 17.6402 11.0341 17.6402H15.3132C15.8756 17.6402 16.3278 17.188 16.3278 16.6256C16.3278 16.1183 15.9528 15.6882 15.4455 15.622L12.4458 15.225C10.626 14.9823 9.26401 13.4328 9.26401 11.5966C9.26401 9.61692 10.8301 8.00675 12.7932 7.94058V7.05829C12.7932 6.32489 13.3832 5.73486 14.1166 5.73486Z" fill="black"/>
</svg>
