<svg width="29" height="29" viewBox="0 0 29 29" fill="none" xmlns="http://www.w3.org/2000/svg">
<path d="M3.07146 11.012L4.77538 12.716C5.10623 13.0468 5.55289 13.2343 6.02161 13.2343H7.20718C7.67589 13.2343 8.12255 13.4218 8.45341 13.7526L10.0691 15.3683C10.4 15.6992 10.5874 16.1458 10.5874 16.6146V18.6824C10.5874 19.1511 10.7749 19.5978 11.1058 19.9287L11.8392 20.6621C12.17 20.9929 12.3575 21.4396 12.3575 21.9083V22.9395C12.3575 23.9155 13.1461 24.704 14.1221 24.704C15.0981 24.704 15.8867 23.9155 15.8867 22.9395V22.7906C15.8867 22.3219 16.0742 21.8752 16.405 21.5443L18.903 19.0464C19.2339 18.7155 19.4213 18.2688 19.4213 17.8001V15.8867C19.4213 14.9106 18.6328 14.1221 17.6568 14.1221H13.0964C12.6277 14.1221 12.1811 13.9346 11.8502 13.6038L10.9679 12.7215C10.7363 12.4899 10.604 12.17 10.604 11.8392C10.604 11.1499 11.1609 10.593 11.8502 10.593H13.7637C14.453 10.593 15.0099 10.036 15.0099 9.34673C15.0099 9.01587 14.8776 8.69604 14.646 8.46444L13.5596 7.37812C13.3446 7.16858 13.2343 6.89838 13.2343 6.61715C13.2343 6.33592 13.3446 6.06572 13.5486 5.86169L14.5026 4.90772C14.8224 4.58789 15.0044 4.15226 15.0044 3.70009C15.0044 3.30306 14.872 2.94463 14.6515 2.65789C14.475 2.65237 14.2986 2.64686 14.1221 2.64686C8.86147 2.64686 4.43349 6.18704 3.07698 11.012H3.07146ZM25.5863 14.1166C25.5863 12.2086 25.1231 10.411 24.296 8.8339C23.9431 8.88352 23.5957 9.04895 23.3089 9.3357L22.57 10.0746C22.2391 10.4055 22.0517 10.8521 22.0517 11.3208V13.2343C22.0517 14.2103 22.8402 14.9989 23.8162 14.9989H25.1452C25.283 14.9989 25.4209 14.9823 25.5477 14.9548C25.5698 14.679 25.5753 14.3978 25.5753 14.1166H25.5863ZM0 14.1166C0 6.31938 6.31938 0 14.1166 0C21.9138 0 28.2332 6.31938 28.2332 14.1166C28.2332 21.9138 21.9138 28.2332 14.1166 28.2332C6.31938 28.2332 0 21.9138 0 14.1166Z" fill="black"/>
</svg>
