<svg width="30" height="25" viewBox="0 0 30 25" fill="none" xmlns="http://www.w3.org/2000/svg">
<path d="M14.6919 17.2421C17.5333 17.2421 19.8785 15.0426 20.1184 12.261H9.26547C9.5053 15.0511 11.8416 17.2421 14.6919 17.2421Z" fill="black"/>
<mask id="mask0_1_536" style="mask-type:luminance" maskUnits="userSpaceOnUse" x="1" y="12" width="27" height="13">
<path d="M1.45175 12.1934H27.9274V24.8102H1.45175V12.1934Z" fill="white"/>
</mask>
<g mask="url(#mask0_1_536)">
<path d="M21.032 12.2544C20.7926 15.5496 18.0448 18.1516 14.6899 18.1516C11.335 18.1516 8.57871 15.5411 8.34779 12.2544H1.54344V13.7865H3.80309C4.01706 13.7865 4.20518 13.9319 4.24798 14.1458C4.51321 15.3441 4.98395 16.4826 5.64326 17.5181C5.75426 17.6978 5.72885 17.9376 5.57461 18.0914L3.97427 19.6922L6.79872 22.4993L8.39906 20.8989C8.5533 20.7447 8.78421 20.7277 8.97233 20.8392C10.0168 21.498 11.1464 21.9688 12.3446 22.234C12.5501 22.2768 12.7044 22.4654 12.7044 22.6794V24.9386H16.6843V22.6794C16.6843 22.4654 16.8296 22.2768 17.0436 22.234C18.2418 21.9688 19.3803 21.498 20.4159 20.8392C20.5955 20.7277 20.8354 20.7536 20.9892 20.9074L22.5899 22.5082L25.4055 19.6922L23.8051 18.0914C23.6509 17.9376 23.634 17.7063 23.7454 17.5181C24.4043 16.4741 24.875 15.3441 25.1402 14.1458C25.183 13.9403 25.3716 13.7865 25.5856 13.7865H27.8448V12.2544H21.032Z" fill="black"/>
</g>
<path d="M5.62497 5.00832C6.8406 5.00832 7.83335 4.01513 7.83335 2.79994C7.83335 1.58475 6.8406 0.591553 5.62497 0.591553C4.40978 0.591553 3.41703 1.58475 3.41703 2.79994C3.41703 4.01513 4.40978 5.00832 5.62497 5.00832Z" fill="black"/>
<path d="M9.70362 7.71521C9.70362 6.51696 9.07062 5.39583 8.06048 4.75391C7.48721 5.46403 6.60546 5.91783 5.62966 5.91783C4.64538 5.91783 3.77255 5.46403 3.19883 4.75391C2.18914 5.38691 1.55569 6.50849 1.55569 7.71521V11.3354H9.70362V7.71521Z" fill="black"/>
<path d="M14.6883 5.00832C15.9035 5.00832 16.8967 4.01513 16.8967 2.79994C16.8967 1.58475 15.9035 0.591553 14.6883 0.591553C13.4731 0.591553 12.4799 1.58475 12.4799 2.79994C12.4799 4.01513 13.4731 5.00832 14.6883 5.00832Z" fill="black"/>
<path d="M18.7665 7.71521C18.7665 6.51696 18.133 5.39583 17.1233 4.75391C16.5496 5.46403 15.6683 5.91783 14.6925 5.91783C13.7167 5.91783 12.8354 5.46403 12.2617 4.75391C11.252 5.38691 10.6185 6.50849 10.6185 7.71521V11.3354H18.7665V7.71521Z" fill="black"/>
<path d="M27.8293 7.71521C27.8293 6.51696 27.1959 5.39583 26.1862 4.75391C25.6125 5.46403 24.7312 5.91783 23.7554 5.91783C22.7796 5.91783 21.8978 5.46403 21.3245 4.75391C20.3144 5.38691 19.6814 6.50849 19.6814 7.71521V11.3354H27.8293V7.71521Z" fill="black"/>
<path d="M23.7546 5.00832C24.9697 5.00832 25.9625 4.01513 25.9625 2.79994C25.9625 1.58475 24.9697 0.591553 23.7546 0.591553C22.5389 0.591553 21.5462 1.58475 21.5462 2.79994C21.5462 4.01513 22.5389 5.00832 23.7546 5.00832Z" fill="black"/>
<mask id="mask1_1_536" style="mask-type:luminance" maskUnits="userSpaceOnUse" x="0" y="0" width="30" height="25">
<path d="M0 0H29.1004V24.8209H0V0Z" fill="white"/>
</mask>
<g mask="url(#mask1_1_536)">
<path d="M33.613 4.78217C32.5774 2.3344 31.0965 0.143406 29.2136 -1.74803C27.3306 -3.63099 25.1311 -5.11187 22.6834 -6.14741C20.15 -7.21728 17.4624 -7.76514 14.6893 -7.76514C11.9161 -7.76514 9.22847 -7.22575 6.69512 -6.14741C4.24735 -5.11187 2.05635 -3.63099 0.16492 -1.74803C-1.72696 0.134937 -3.19892 2.3344 -4.23446 4.78217C-5.30433 7.31553 -5.85219 10.0031 -5.85219 12.7763C-5.85219 15.5495 -5.3128 18.2371 -4.23446 20.7704C-3.19892 23.2182 -1.71805 25.4092 0.16492 27.3006C2.04789 29.1836 4.24735 30.6645 6.69512 31.7C9.22847 32.7699 11.9161 33.3177 14.6893 33.3177C17.4624 33.3177 20.15 32.7784 22.6834 31.7C25.1311 30.6645 27.3221 29.1836 29.2136 27.3006C31.0965 25.4177 32.5774 23.2182 33.613 20.7704C34.6828 18.2371 35.2307 15.5495 35.2307 12.7763C35.2307 10.0031 34.6828 7.31553 33.613 4.78217ZM34.4604 12.7763C34.4604 23.6805 25.585 32.5559 14.6808 32.5559C3.77661 32.5559 -5.09882 23.6805 -5.09882 12.7763C-5.09882 1.87213 3.77661 -7.0033 14.6808 -7.0033C25.5934 -7.0033 34.4604 1.87213 34.4604 12.7763Z" fill="black"/>
</g>
</svg>
